<svg width="48.000000" height="48.000000" viewBox="0 0 48 48" fill="none" xmlns="http://www.w3.org/2000/svg" xmlns:xlink="http://www.w3.org/1999/xlink">
	<desc>
			Created with Pixso.
	</desc>
	<defs/>
	<path id="Preloader" d="M25.39 -0.89C30.12 -0.42 34.44 1.43 37.96 4.24C42.38 7.76 45.22 12.53 46.39 17.66C47.65 23.17 46.9 28.68 44.61 33.41C42.16 38.5 38.14 42.34 33.41 44.61C28.31 47.07 22.78 47.56 17.65 46.39C12.14 45.13 7.51 42.06 4.23 37.95C1.24 34.21 -0.44 29.84 -0.89 25.39C-1.02 24.07 0.07 23 1.39 23C2.72 23 3.78 24.07 3.94 25.39C4.39 28.98 5.83 32.27 7.99 34.96C10.8 38.5 14.63 40.78 18.72 41.71C23.13 42.72 27.54 42.12 31.32 40.29C35.4 38.33 38.47 35.11 40.29 31.32C42.26 27.25 42.65 22.82 41.71 18.72C40.71 14.31 38.25 10.6 34.96 7.99C32.1 5.7 28.78 4.37 25.39 3.94C24.07 3.78 23 2.72 23 1.4C23 0.07 24.07 -1.02 25.39 -0.89Z" fill="#00BDD3" fill-opacity="1.000000" fill-rule="evenodd"/>
</svg>
